<?xml version="1.0" encoding="UTF-8"?>
<svg xmlns="http://www.w3.org/2000/svg" viewBox="0 0 1280 720">
  <rect width="1280" height="720" fill="#FAFAF8"/>
  <g id="brand-chrome">
    <image href="images/logo.png" x="64" y="34" width="36" height="36" preserveAspectRatio="xMidYMid meet"/>
    <text x="108" y="54" font-family="Microsoft YaHei, PingFang SC, Arial, sans-serif" font-size="14" font-weight="600" fill="#0A0A0A">{{COMPANY_NAME}}</text>
    <text x="108" y="72" font-family="Microsoft YaHei, PingFang SC, Arial, sans-serif" font-size="11" fill="#737373">{{COMPANY_TAGLINE}}</text>
  </g>
  <text x="1216" y="100" font-family="Arial, Helvetica, sans-serif" font-size="13" fill="#737373" text-anchor="end">{{PAGE_NUM}}</text>
  <text x="64" y="132" font-family="Microsoft YaHei, PingFang SC, Arial, sans-serif" font-size="13" fill="#525252">{{SECTION_LABEL}}</text>
  <rect x="64" y="152" width="80" height="3" fill="#002FA7"/>
  <text x="64" y="188" font-family="Microsoft YaHei, PingFang SC, Arial, sans-serif" font-size="32" font-weight="200" fill="#0A0A0A">{{PAGE_TITLE}}</text>
  <!-- row1 -->
  <rect x="64" y="216" width="368" height="224" rx="4" fill="#F0F0EE"/>
  <g transform="translate(88,260)" stroke="#002FA7" stroke-width="1.5" fill="none"><path d="M6 20h28M6 14h20M6 8h24"/></g>
  <text x="88" y="318" font-family="Microsoft YaHei, PingFang SC, Arial, sans-serif" font-size="18" font-weight="500" fill="#002FA7">{{TILE1_TITLE}}</text>
  <text x="88" y="354" font-family="Microsoft YaHei, PingFang SC, Arial, sans-serif" font-size="15" fill="#525252">{{TILE1_DESC_L1}}</text>
  <text x="88" y="382" font-family="Microsoft YaHei, PingFang SC, Arial, sans-serif" font-size="15" fill="#525252">{{TILE1_DESC_L2}}</text>
  <rect x="456" y="216" width="368" height="224" rx="4" fill="#F0F0EE"/>
  <g transform="translate(480,260)" stroke="#525252" stroke-width="1.5" fill="none"><circle cx="18" cy="18" r="14"/><path d="M18 10v8l6 4"/></g>
  <text x="480" y="318" font-family="Microsoft YaHei, PingFang SC, Arial, sans-serif" font-size="18" font-weight="500" fill="#0A0A0A">{{TILE2_TITLE}}</text>
  <text x="480" y="354" font-family="Microsoft YaHei, PingFang SC, Arial, sans-serif" font-size="15" fill="#525252">{{TILE2_DESC_L1}}</text>
  <text x="480" y="382" font-family="Microsoft YaHei, PingFang SC, Arial, sans-serif" font-size="15" fill="#525252">{{TILE2_DESC_L2}}</text>
  <rect x="848" y="216" width="368" height="224" rx="4" fill="#F0F0EE"/>
  <g transform="translate(872,262)" stroke="#525252" stroke-width="1.5" fill="none"><path d="M18 6v24M10 14h16M10 22h16"/></g>
  <text x="880" y="318" font-family="Microsoft YaHei, PingFang SC, Arial, sans-serif" font-size="18" font-weight="500" fill="#0A0A0A">{{TILE3_TITLE}}</text>
  <text x="880" y="354" font-family="Microsoft YaHei, PingFang SC, Arial, sans-serif" font-size="15" fill="#525252">{{TILE3_DESC_L1}}</text>
  <text x="880" y="382" font-family="Microsoft YaHei, PingFang SC, Arial, sans-serif" font-size="15" fill="#525252">{{TILE3_DESC_L2}}</text>
  <!-- row2 -->
  <rect x="64" y="480" width="368" height="224" rx="4" fill="#F0F0EE"/>
  <g transform="translate(88,524)" stroke="#525252" stroke-width="1.5" fill="none"><rect x="4" y="6" width="28" height="20" rx="2"/><path d="M12 2v6M24 2v6"/></g>
  <text x="88" y="582" font-family="Microsoft YaHei, PingFang SC, Arial, sans-serif" font-size="18" font-weight="500" fill="#0A0A0A">{{TILE4_TITLE}}</text>
  <text x="88" y="618" font-family="Microsoft YaHei, PingFang SC, Arial, sans-serif" font-size="15" fill="#525252">{{TILE4_DESC_L1}}</text>
  <text x="88" y="646" font-family="Microsoft YaHei, PingFang SC, Arial, sans-serif" font-size="15" fill="#525252">{{TILE4_DESC_L2}}</text>
  <rect x="456" y="480" width="368" height="224" rx="4" fill="#F0F0EE"/>
  <g transform="translate(480,524)" stroke="#525252" stroke-width="1.5" fill="none"><path d="M8 26l4-14h16l4 14zM14 12v6"/></g>
  <text x="480" y="582" font-family="Microsoft YaHei, PingFang SC, Arial, sans-serif" font-size="18" font-weight="500" fill="#0A0A0A">{{TILE5_TITLE}}</text>
  <text x="480" y="618" font-family="Microsoft YaHei, PingFang SC, Arial, sans-serif" font-size="15" fill="#525252">{{TILE5_DESC_L1}}</text>
  <text x="480" y="646" font-family="Microsoft YaHei, PingFang SC, Arial, sans-serif" font-size="15" fill="#525252">{{TILE5_DESC_L2}}</text>
  <rect x="848" y="480" width="368" height="224" rx="4" fill="#002FA7"/>
  <g transform="translate(872,524)" stroke="#FFFFFF" stroke-width="1.5" fill="none" opacity="0.95"><path d="M6 24V12l12-8 12 8v12"/><circle cx="18" cy="16" r="3" fill="#FFFFFF" stroke="none"/></g>
  <text x="880" y="582" font-family="Microsoft YaHei, PingFang SC, Arial, sans-serif" font-size="18" font-weight="500" fill="#FFFFFF">{{TILE6_TITLE}}</text>
  <text x="880" y="618" font-family="Microsoft YaHei, PingFang SC, Arial, sans-serif" font-size="15" fill="#FFFFFF" opacity="0.92">{{TILE6_DESC_L1}}</text>
  <text x="880" y="646" font-family="Microsoft YaHei, PingFang SC, Arial, sans-serif" font-size="15" fill="#FFFFFF" opacity="0.92">{{TILE6_DESC_L2}}</text>
</svg>
